# xmcd CD database file
#
# Track frame offsets:
#	150
#	37766
#	68149
#	83774
#	127029
#
# Disc length: 2032 seconds
#
# Revision: 0
# Processed by: cddbd v1.5.2PL0 Copyright (c) Steve Scherf et al.
# Submitted via: CDex 1.70beta2
#
DISCID=3707ee05
DTITLE=Red Garland - The Cool Jazz Collection 34
DYEAR=2009
DGENRE=Jazz
TTITLE0=C Jam Blues
TTITLE1=S'Wonderful
TTITLE2=Crazy Rhythm
TTITLE3=Willow Weep for Me
TTITLE4=The Nearness of You
EXTD=YEAR: 2009
EXTT0=
EXTT1=
EXTT2=
EXTT3=
EXTT4=
PLAYORDER=
